<svg xmlns="http://www.w3.org/2000/svg" version="1.1" xmlns:xlink="http://www.w3.org/1999/xlink" xmlns:svgjs="http://svgjs.dev/svgjs" width="1500" height="1500" viewBox="0 0 1500 1500"><rect width="1500" height="1500" fill="#6497d6"></rect><g transform="matrix(0.6666666666666666,0,0,0.6666666666666666,249.39393939393938,435.99032258064517)"><svg viewBox="0 0 396 248" data-background-color="#6497d6" preserveAspectRatio="xMidYMid meet" height="939" width="1500" xmlns="http://www.w3.org/2000/svg" xmlns:xlink="http://www.w3.org/1999/xlink"><g id="tight-bounds" transform="matrix(1,0,0,1,0.2400000000000091,0.4000000000000057)"><svg viewBox="0 0 395.52 247.2" height="247.2" width="395.52"><g><svg></svg></g><g><svg viewBox="0 0 395.52 247.2" height="247.2" width="395.52"><g transform="matrix(1,0,0,1,78.21662289429808,47.215199999999996)"><svg viewBox="0 0 239.08675421140381 152.7696" height="152.7696" width="239.08675421140381"><g><svg viewBox="0 0 244.43135999999998 156.18465028655652" height="152.7696" width="239.08675421140381"><g transform="matrix(1,0,0,1,0,87.03833687928433)"><svg viewBox="0 0 244.43135999999998 69.1463134072722" height="69.1463134072722" width="244.43135999999998"><g id="textblocktransform"><svg viewBox="0 0 244.43135999999998 69.1463134072722" height="69.1463134072722" width="244.43135999999998" id="textblock"><g><svg viewBox="0 0 244.43135999999998 69.1463134072722" height="69.1463134072722" width="244.43135999999998"><g transform="matrix(1,0,0,1,0,0)"><svg width="244.43135999999998" viewBox="1.18 -37.88 178.06 50.38" height="69.1463134072722" data-palette-color="#f8f2eb"><path d="M26.5 0L1.18 0 1.18-0.98 20.93-36.52 11.78-36.52Q8.38-36.52 6.55-35.76 4.73-35 4.03-33.34 3.33-31.68 3.33-29L3.33-29 2.35-29 2.35-37.5 26.18-37.5 26.18-36.52 6.43-0.98 17.07-0.98Q20.5-0.98 22.31-1.79 24.13-2.6 24.81-4.46 25.5-6.33 25.5-9.5L25.5-9.5 26.5-9.5 26.5 0ZM36.45-31.85L36.45-31.85Q35.2-31.85 34.32-32.74 33.45-33.63 33.45-34.88L33.45-34.88Q33.45-36.1 34.32-36.99 35.2-37.88 36.45-37.88L36.45-37.88Q37.67-37.88 38.56-36.99 39.45-36.1 39.45-34.88L39.45-34.88Q39.45-33.63 38.57-32.74 37.7-31.85 36.45-31.85ZM30.92-23L38.67-23 38.67-0.98 41.95-0.98 41.95 0 30.92 0 30.92-0.98 34.17-0.98 34.17-22.03 30.92-22.03 30.92-23ZM45.82-23L53.47-23 53.47-0.98 56.7-0.98 56.7 0 45.82 0 45.82-0.98 49.1-0.98 49.1-22.03 45.82-22.03 45.82-23ZM68.72-15.98L68.72-15.98 68.72-0.98 72-0.98 72 0 61.07 0 61.07-0.98 64.32-0.98 64.32-15.23Q64.32-17.32 64.13-18.91 63.95-20.5 63.3-21.39 62.65-22.28 61.27-22.28L61.27-22.28Q59.25-22.28 57.77-21.18 56.3-20.08 55.35-18.36 54.4-16.65 53.93-14.74 53.47-12.83 53.47-11.23L53.47-11.23 52.85-11.1Q52.85-12.75 53.28-14.86 53.72-16.98 54.75-18.95 55.77-20.93 57.52-22.2 59.27-23.48 61.92-23.48L61.92-23.48Q64.8-23.48 66.26-22.5 67.72-21.53 68.22-19.84 68.72-18.15 68.72-15.98ZM91.57 0L75.32 0 75.32-0.98 80.82-0.98 80.82-36.52 75.32-36.52 75.32-37.5 91.57-37.5 91.57-36.52 85.57-36.52 85.57-0.98 91.57-0.98 91.57 0ZM96.29 0.5L95.44 0.5 95.44-6.8 96.44-6.8Q96.72-5.08 97.8-3.66 98.89-2.25 100.49-1.4 102.09-0.55 103.94-0.55L103.94-0.55Q105.34-0.55 106.59-1 107.84-1.45 108.62-2.38 109.39-3.3 109.39-4.78L109.39-4.78Q109.39-6.35 108.44-7.28 107.49-8.2 105.98-8.79 104.47-9.38 102.78-9.94 101.09-10.5 99.58-11.3 98.07-12.1 97.1-13.43 96.14-14.75 96.14-16.95L96.14-16.95Q96.14-18.55 96.87-20.04 97.59-21.53 99.09-22.49 100.59-23.45 102.97-23.45L102.97-23.45Q104.67-23.45 106.09-22.89 107.52-22.33 108.59-21.43L108.59-21.43 110.47-23.48 111.34-23.48 111.34-16.5 110.34-16.5Q110.22-17.98 109.25-19.33 108.29-20.68 106.69-21.55 105.09-22.43 103.02-22.43L103.02-22.43Q101.82-22.43 100.84-22.01 99.87-21.6 99.27-20.83 98.67-20.05 98.67-18.98L98.67-18.98Q98.67-17.6 99.68-16.74 100.69-15.88 102.27-15.25 103.84-14.63 105.62-14.01 107.39-13.4 108.98-12.54 110.57-11.68 111.57-10.34 112.57-9 112.57-6.93L112.57-6.93Q112.57-4.7 111.48-3.03 110.39-1.35 108.54-0.43 106.69 0.5 104.34 0.5L104.34 0.5Q102.62 0.5 101.07-0.1 99.52-0.7 98.32-1.73L98.32-1.73 96.29 0.5ZM139.39-37.5L149.66-37.5 149.66-36.52 144.94-36.52 144.94-11.5Q144.94-5.33 142.15-2.3 139.36 0.73 133.44 0.73L133.44 0.73Q126.96 0.73 123.95-2.15 120.94-5.03 120.94-11.5L120.94-11.5 120.94-36.52 116.46-36.52 116.46-37.5 130.71-37.5 130.71-36.52 125.71-36.52 125.71-12Q125.71-9.53 126.08-7.41 126.44-5.3 127.38-3.74 128.31-2.18 130.03-1.3 131.74-0.43 134.44-0.43L134.44-0.43Q137.54-0.43 139.66-1.56 141.79-2.7 142.89-5.14 143.99-7.58 143.99-11.5L143.99-11.5 143.99-36.52 139.39-36.52 139.39-37.5ZM164.19 12.5L153.19 12.5 153.19 11.53 156.46 11.53 156.46-22.03 153.19-22.03 153.19-23 160.94-23 160.94-15.7Q161.76-19.28 163.84-21.36 165.91-23.45 168.96-23.45L168.96-23.45Q171.59-23.45 173.94-22.03 176.29-20.6 177.76-17.93 179.24-15.25 179.24-11.5L179.24-11.5Q179.24-7.75 177.76-5.06 176.29-2.38 173.94-0.94 171.59 0.5 168.96 0.5L168.96 0.5Q165.91 0.5 163.84-1.61 161.76-3.73 160.94-7.28L160.94-7.28 160.94 11.53 164.19 11.53 164.19 12.5ZM168.06-0.85L168.06-0.85Q169.99-0.85 171.35-2.13 172.71-3.4 173.41-5.78 174.11-8.15 174.11-11.5L174.11-11.5Q174.11-14.85 173.41-17.21 172.71-19.58 171.35-20.84 169.99-22.1 168.06-22.1L168.06-22.1Q166.19-22.1 164.56-20.85 162.94-19.6 161.94-17.24 160.94-14.88 160.94-11.5L160.94-11.5Q160.94-8.13 161.94-5.75 162.94-3.38 164.56-2.11 166.19-0.85 168.06-0.85Z" opacity="1" transform="matrix(1,0,0,1,0,0)" fill="#f8f2eb" class="wordmark-text-0" data-fill-palette-color="primary" id="text-0"></path></svg></g></svg></g></svg></g></svg></g><g transform="matrix(1,0,0,1,94.05216713448975,0)"><svg viewBox="0 0 56.327025731020484 70.71455179534914" height="70.71455179534914" width="56.327025731020484"><g><svg xmlns="http://www.w3.org/2000/svg" xmlns:xlink="http://www.w3.org/1999/xlink" version="1.0" x="0" y="0" viewBox="15.6850586 3.6717529 71.9501343 90.3282471" enable-background="new 0 0 100 100" xml:space="preserve" height="70.71455179534914" width="56.327025731020484" class="icon-icon-0" data-fill-palette-color="accent" id="icon-0"><g fill="#b3d7ed" data-fill-palette-color="accent"><polygon points="81.2773438,56.8994141 60.3235474,48.8267822 60.2514038,41.4863281 64.0084229,32.3755493 66.7858276,31.4420776    67.6157227,23.4489746 65.3502197,22.3515015 65.9616089,14.3040771 57.7007446,3.6717529 45.6195679,3.6717529    42.0075684,8.3206787 37.3587036,14.3040771 37.9700317,22.3515015 35.7045898,23.4489746 36.5344849,31.4420776    39.3118286,32.3755493 43.0689087,41.4863892 42.9967651,48.8267822 22.0429688,56.8994141 15.6850586,75.3734131    15.6850586,79.1824341 23.8092651,79.1824341 23.8092651,75.3734131 23.8092651,58.9157104 24.824646,58.9157104    51.6471558,58.9157104 77.5939941,58.9157104 79.578125,58.9157104 79.578125,75.3734131 79.578125,79.1824341    87.6351929,79.1824341 87.6351929,75.3734131  " fill="#b3d7ed" data-fill-palette-color="accent"></polygon><polygon points="74.4656372,66.3009033 74.4656372,63.932251 28.8546753,63.932251 28.8546753,66.3009033 28.8546753,90.2185669    25.4189453,90.2185669 25.4189453,94 28.8546753,94 74.4656372,94 77.9013672,94 77.9013672,90.2185669 74.4656372,90.2185669  " fill="#b3d7ed" data-fill-palette-color="accent"></polygon></g></svg></g></svg></g><g></g></svg></g></svg></g><g><path d="M121.854 31.248A119.543 119.543 0 0 1 273.666 31.248L267.567 31.248A113.444 113.444 0 0 0 127.953 31.248L121.854 31.248M121.854 215.952A119.543 119.543 0 0 0 273.666 215.952L267.567 215.952A113.444 113.444 0 0 1 127.953 215.952L121.854 215.952" fill="#21272d" stroke="transparent" data-fill-palette-color="tertiary"></path></g></svg></g><defs></defs></svg><rect width="395.52" height="247.2" fill="none" stroke="none" visibility="hidden"></rect></g></svg></g></svg>